<?xml version="1.0" standalone="no"?>
<!DOCTYPE svg PUBLIC "-//W3C//DTD SVG 20010904//EN"
 "http://www.w3.org/TR/2001/REC-SVG-20010904/DTD/svg10.dtd">
<svg version="1.0" xmlns="http://www.w3.org/2000/svg"
 width="62.000000pt" height="63.000000pt" viewBox="0 0 62.000000 63.000000"
 preserveAspectRatio="xMidYMid meet">

<g transform="translate(0.000000,63.000000) scale(0.100000,-0.100000)"
fill="#000000" stroke="none">
<path d="M60 449 c0 -134 4 -195 15 -234 39 -133 175 -236 273 -207 52 16 115
63 152 113 50 69 60 126 60 328 l0 181 -250 0 -250 0 0 -181z m480 -17 c0
-217 -8 -254 -72 -327 -40 -46 -89 -76 -141 -89 -42 -10 -120 29 -171 85 -68
75 -76 111 -76 331 l0 188 230 0 230 0 0 -188z"/>
<path d="M110 403 c0 -168 2 -191 21 -229 39 -81 143 -150 202 -133 47 13 104
55 137 100 38 52 49 116 46 264 -5 202 -1 185 -40 185 l-35 0 -3 -153 c-2
-128 -6 -158 -21 -181 -24 -36 -33 -27 -13 13 12 23 16 63 16 176 l0 145 -110
0 -110 0 0 -145 c0 -113 4 -153 16 -176 20 -40 11 -49 -13 -13 -15 23 -19 53
-21 181 l-3 153 -35 0 -34 0 0 -187z m50 157 c0 -5 -7 -10 -15 -10 -8 0 -15 5
-15 10 0 6 7 10 15 10 8 0 15 -4 15 -10z m164 -25 c3 -8 12 -15 21 -15 8 0 15
-4 15 -10 0 -5 -4 -10 -10 -10 -5 0 -10 -10 -10 -22 0 -19 -6 -23 -30 -23 -24
0 -30 4 -30 23 0 12 -4 22 -10 22 -5 0 -10 5 -10 10 0 6 7 10 15 10 9 0 18 7
21 15 4 8 10 15 14 15 4 0 10 -7 14 -15z m176 -24 c0 -14 -2 -14 -10 -1 -9 13
-11 13 -20 0 -11 -17 -14 -1 -4 24 5 13 9 14 20 5 8 -6 14 -19 14 -28z m-342
8 c-2 -6 -8 -10 -13 -10 -5 0 -11 4 -13 10 -2 6 4 11 13 11 9 0 15 -5 13 -11z
m-3 -39 c3 -5 -3 -10 -15 -10 -12 0 -18 5 -15 10 3 6 10 10 15 10 5 0 12 -4
15 -10z m345 -28 c0 -13 -3 -12 -15 4 -20 26 -19 0 1 -31 9 -13 14 -30 11 -37
-4 -8 -6 -6 -6 5 -1 19 -21 24 -21 5 0 -7 7 -22 15 -32 8 -11 15 -25 15 -30 0
-6 -5 -4 -10 4 -8 12 -12 13 -19 2 -6 -11 -8 97 -2 142 2 14 31 -15 31 -32z
m-340 -12 c0 -5 -7 -10 -15 -10 -8 0 -15 5 -15 10 0 6 7 10 15 10 8 0 15 -4
15 -10z m162 -66 c3 -62 -2 -81 -19 -71 -11 7 -3 137 7 137 5 0 10 -30 12 -66z
m-162 23 c0 -8 -7 -14 -15 -14 -16 0 -19 9 -8 20 11 11 23 8 23 -6z m-2 -39
c-6 -18 -28 -21 -28 -4 0 9 7 16 16 16 9 0 14 -5 12 -12z m2 -47 c0 -4 -7 -8
-15 -8 -16 0 -20 9 -9 20 8 8 24 -1 24 -12z m340 -29 c0 -13 -3 -12 -15 4 -14
19 -14 19 -15 0 0 -11 -3 -17 -6 -13 -3 3 -3 15 1 27 5 17 10 19 21 9 8 -6 14
-19 14 -27z m-335 -2 c3 -6 -1 -13 -10 -16 -19 -8 -30 0 -20 15 8 14 22 14 30
1z m203 -45 c-3 -3 -13 1 -22 10 -9 9 -16 13 -16 8 0 -4 -5 -1 -10 7 -9 13
-11 13 -20 0 -5 -8 -10 -11 -10 -7 0 5 -7 1 -16 -8 -23 -22 -31 -10 -10 14 26
29 57 31 85 4 14 -12 22 -25 19 -28z m112 -25 c-14 -4 -35 -5 -46 -3 -12 3
-24 0 -28 -5 -3 -5 10 -9 31 -8 21 0 38 -4 40 -11 4 -10 -34 -13 -167 -13
-133 0 -171 3 -167 13 2 7 19 11 40 11 21 -1 37 3 37 9 0 5 -12 7 -27 5 -16
-3 -39 -2 -53 2 -14 4 63 8 170 8 107 0 184 -4 170 -8z m-222 -78 c13 -4 23
-11 22 -16 -1 -5 4 -13 12 -17 10 -7 10 -9 -2 -9 -8 1 -33 12 -55 25 -40 25
-30 32 23 17z m127 -17 c-22 -13 -47 -24 -55 -25 -12 0 -12 2 -2 9 8 4 13 12
12 17 -1 10 32 21 65 23 14 1 8 -7 -20 -24z"/>
<path d="M300 500 c0 -5 5 -10 10 -10 6 0 10 5 10 10 0 6 -4 10 -10 10 -5 0
-10 -4 -10 -10z"/>
<path d="M235 200 c-2 -3 32 -6 76 -6 43 -1 79 2 79 6 0 9 -149 9 -155 0z"/>
</g>
</svg>
